<svg xmlns="http://www.w3.org/2000/svg" version="1.1" xmlns:xlink="http://www.w3.org/1999/xlink" xmlns:svgjs="http://svgjs.dev/svgjs" width="1000" height="623" viewBox="0 0 1000 623"><g transform="matrix(1,0,0,1,-0.6060606060605664,0.2522267206477409)"><svg viewBox="0 0 396 247" data-background-color="#ffffff" preserveAspectRatio="xMidYMid meet" height="623" width="1000" xmlns="http://www.w3.org/2000/svg" xmlns:xlink="http://www.w3.org/1999/xlink"><g id="tight-bounds" transform="matrix(1,0,0,1,0.2400000000000091,-0.09999999999999432)"><svg viewBox="0 0 395.52 247.2" height="247.2" width="395.52"><g><svg></svg></g><g><svg viewBox="0 0 395.52 247.2" height="247.2" width="395.52"><g transform="matrix(1,0,0,1,75.54432,58.747606586412175)"><svg viewBox="0 0 244.43135999999998 129.70478682717564" height="129.70478682717564" width="244.43135999999998"><g><svg viewBox="0 0 244.43135999999998 129.70478682717564" height="129.70478682717564" width="244.43135999999998"><g><svg viewBox="0 0 244.43135999999998 129.70478682717564" height="129.70478682717564" width="244.43135999999998"><g><svg viewBox="0 0 244.43135999999998 129.70478682717564" height="129.70478682717564" width="244.43135999999998"><g id="textblocktransform"><svg viewBox="0 0 244.43135999999998 129.70478682717564" height="129.70478682717564" width="244.43135999999998" id="textblock"><g><svg viewBox="0 0 244.43135999999998 84.98656966252219" height="84.98656966252219" width="244.43135999999998"><g transform="matrix(1,0,0,1,0,0)"><svg width="244.43135999999998" viewBox="1.7000000476837158 -37.5 112.59000396728516 39.150001525878906" height="84.98656966252219" data-palette-color="#ea3c12"><path d="M13.15 0Q12.75 0 12.48-0.25 12.2-0.5 12.2-0.85L12.2-0.85 12.2-7.4Q12.2-8 9.65-8.5 7.1-9 5.45-9L5.45-9Q5.35-9 5.13-8.25 4.9-7.5 4.8-7.15L4.8-7.15Q4.15-4.55 3.5-1.6L3.5-1.6 3.25-0.5Q3.15-0.1 2.75-0.1L2.75-0.1Q2.35-0.1 2.02-0.35 1.7-0.6 1.7-0.95L1.7-0.95 1.75-1.05 1.75-1.1 2.3-3.6Q2.9-5.95 3.35-8.2L3.35-8.2Q3.85-10.75 4.1-11.5L4.1-11.5Q4.5-13.15 5.7-19.75L5.7-19.75 6-21.4Q7.3-29.1 7.8-31.1L7.8-31.1Q8.05-32.3 8.7-34.65L8.7-34.65Q8.95-35.65 9.4-36.65L9.4-36.65Q9.85-37.5 10.15-37.5L10.15-37.5Q10.95-37.5 11.3-37L11.3-37Q11.55-36.55 12.08-32.05 12.6-27.55 13-22.95L13-22.95 13.65-14.65Q13.65-12.5 13.95-8.15L13.95-8.15Q14.25-3.75 14.25-1.6L14.25-1.6 14.25-1.4Q14.25-0.85 14.1-0.4L14.1-0.4Q13.9 0 13.15 0L13.15 0ZM11.15-9.65Q12.15-9.65 12.15-10.15L12.15-10.15Q12.15-13.25 11.8-18.63 11.45-24 11.05-28.1L11.05-28.1Q10.95-29.85 10.65-31.95L10.65-31.95 10.45-33.9Q10.45-33.85 10.35-34.45L10.35-34.45 10.25-35.05Q9.85-33.95 9.47-32 9.1-30.05 8.7-27.4L8.7-27.4Q7.5-19.95 6.65-16.2L6.65-16.2 6.2-14.5Q5.45-12 5.45-10.7L5.45-10.7 5.45-10.4Q7.65-9.7 10.5-9.7L10.5-9.7 10.8-9.7Q10.95-9.65 11.15-9.65L11.15-9.65ZM22.2 0.25Q21.8 0.25 21.8-1.1L21.8-1.1Q21.6-4.55 21.6-9.8L21.6-9.8Q21.6-13.1 21.65-15.7L21.65-15.7 21.7-21.6Q21.7-25.4 21.5-31L21.5-31Q21.05-31.4 21.05-32L21.05-32Q21.05-32.35 21.47-32.73 21.9-33.1 22.25-33.1L22.25-33.1Q22.65-33.1 23-32.7L23-32.7 23.55-32.25Q23.85-32.1 24.7-31.95L24.7-31.95Q25.55-31.8 25.9-31.65L25.9-31.65Q26.65-31.25 27.9-30.1L27.9-30.1Q29.1-28.9 29.55-28.6L29.55-28.6 29.5-28.5Q29.55-28.2 30.25-27.2L30.25-27.2Q30.8-26.45 31.15-25.8L31.15-25.8Q31.95-23.5 31.95-19.85L31.95-19.85Q31.95-19.2 31.9-18.7L31.9-18.7 31.9-17.5 31.9-17.1 31.85-16.6Q31.85-15.65 32.15-15.1L32.15-15.1Q31.85-13.5 31.4-9.05L31.4-9.05Q31.25-7.75 30.9-6.3 30.55-4.85 30.05-3.9L30.05-3.9Q28.75-1.45 25.7 0.25L25.7 0.25 22.2 0.25ZM23.95-1.2L25.5-1.2Q25.85-1.6 26.15-1.85L26.15-1.85Q26.15-1.85 26.5-2.1L26.5-2.1 26.9-2.45Q30.4-5.6 30.4-14.45L30.4-14.45 30.4-15.4Q30.35-15.8 30.35-16.25L30.35-16.25 30.15-21.3Q30-24.2 28.4-27.3L28.4-27.3Q27.65-28.85 26.37-29.83 25.1-30.8 23.7-30.8L23.7-30.8Q23.1-30.8 23.1-21.55L23.1-21.55Q23.1-10.85 23.7-2.9L23.7-2.9 23.65-1.95 23.85-1.85 23.95-1.2ZM49.45 1.65Q48.9 1.65 48.75 1.05L48.75 1.05Q48.59 0.45 48.59-0.1L48.59-0.1 48.59-0.55Q48.4-2.55 48.05-4.3L48.05-4.3Q47.59-6.75 47.45-8.1 47.3-9.45 47-13L47-13Q46.55-18.6 46.15-21.5L46.15-21.5Q45.7-25.2 45.2-25.7L45.2-25.7 44.9-23Q44.65-20.6 44.65-19.6L44.65-19.6Q44.65-17.5 44.45-15.4 44.25-13.3 43.75-10.05L43.75-10.05 43.15-5.9Q43.09-5.8 43.07-5.53 43.05-5.25 43-4.85L43-4.85Q42.9-3.45 42.45-1.15L42.45-1.15Q42.3-0.15 42 0.45L42 0.45Q41.8 1.05 41.4 1.05L41.4 1.05Q40.7 1.05 40.25-1.2L40.25-1.2Q39.9-3.2 39.59-7.55L39.59-7.55Q39.45-10.3 39.34-11.65 39.25-13 38.95-14.85L38.95-14.85 38.75-16.4Q38.34-19.1 38.25-20.25 38.15-21.4 38.05-23.6L38.05-23.6Q38-25.25 37.9-26.58 37.8-27.9 37.55-29.35L37.55-29.35Q37.34-30.6 36.9-32L36.9-32Q37.09-32.4 37.7-32.4L37.7-32.4Q38.3-32.4 38.55-31.25L38.55-31.25Q38.59-31.05 38.7-29.25L38.7-29.25 38.7-28.6Q38.75-27.55 39.84-18.7L39.84-18.7Q40.84-10.7 41-5.65L41-5.65Q41.2-5.2 41.25-4.3L41.25-4.3Q41.34-3.3 41.5-2.95L41.5-2.95 41.55-2.95 42.34-8.2Q42.34-8.9 42.65-10.6L42.65-10.6Q43-13.25 43.25-15.8L43.25-15.8Q43.5-18.85 43.55-21.1L43.55-21.1Q43.7-24.7 43.9-25.9L43.9-25.9 44.05-27.15Q44.25-29.05 44.25-29L44.25-29 45.15-29.4Q45.5-29.4 45.75-29.2 46-29 46-28.7L46-28.7Q46-28.55 45.84-28.3L45.84-28.3Q47.84-21.55 48.55-12.15L48.55-12.15 48.65-10.3Q48.7-8.05 49-6.45L49-6.45Q49.3-5.15 49.55-4.55L49.55-4.55Q50.15-6.25 50.55-12.85 50.95-19.45 50.95-24.3L50.95-24.3Q50.95-25.2 51.3-28.15L51.3-28.15Q51.65-30.6 51.65-32.05L51.65-32.05Q51.65-32.5 51.45-32.9L51.45-32.9Q51.45-33.7 52.45-33.7L52.45-33.7Q52.84-33.7 52.97-33.6 53.09-33.5 53.09-33.1L53.09-33.1Q53.09-31.7 52.84-30.95L52.84-30.95 52.95-30.65Q52.55-28.5 52.55-25.95L52.55-25.95Q52.55-25.5 52.65-25.4L52.65-25.4 52.34-24.4 52.5-24.05Q52.34-23.75 52.34-23.45L52.34-23.45 52.5-22.5 52.34-22.3Q52.34-20.55 51.95-14.5 51.55-8.45 51.34-6.8L51.34-6.8 51.05-5.45Q50.75-4.4 50.75-3.8L50.75-3.8Q50.75-2.2 50.59-0.75L50.59-0.75Q50.55 0.25 50.2 1L50.2 1Q49.84 1.65 49.45 1.65L49.45 1.65ZM49.55-4.3L49.59-4.3 49.55-4.35 49.55-4.3ZM64.34 0.95Q58.49 0.95 58.49-17.45L58.49-17.45 58.49-19.2Q58.49-33.15 62.09-33.15L62.09-33.15Q62.34-33.15 62.79-33L62.79-33Q64.39-32.45 65.94-32.3L65.94-32.3Q66.89-32.1 67.84-30.35L67.84-30.35Q68.89-28.55 69.42-25.6 69.94-22.65 69.94-19.55L69.94-19.55 69.84-19.3Q69.84-17.65 69.89-16.35L69.89-16.35 69.94-13.35Q69.94-10.8 69.74-8.75L69.74-8.75Q69.44-5.65 68.74-3.4L68.74-3.4Q68.29-2.05 67.72-1.15 67.14-0.25 66.29 0.35L66.29 0.35Q65.49 0.95 64.34 0.95L64.34 0.95ZM64.14-0.5Q66.09-0.5 67.04-3.25L67.04-3.25Q67.99-6.05 68.19-8.95L68.19-8.95Q68.39-11.95 68.39-13.75L68.39-13.75Q68.39-15.75 68.09-19.65L68.09-19.65Q67.84-24 67.84-25.55L67.84-25.55 67.64-25.95 67.74-26.2Q67.74-28.4 66.52-30 65.29-31.6 63.54-31.6L63.54-31.6Q61.24-31.6 60.79-29.4L60.79-29.4Q60.69-28.65 60.59-27.25L60.59-27.25Q60.59-23.55 60.29-22.2L60.29-22.2Q60.29-21.45 60.14-19.85L60.14-19.85 60.04-17.5Q60.04-16.4 60.09-15.55L60.09-15.55 60.14-13.55Q60.14-11.2 60.54-8.15L60.54-8.15Q60.84-5.9 61.24-4.35 61.64-2.8 62.39-1.7L62.39-1.7Q63.14-0.5 64.14-0.5L64.14-0.5ZM84.79 0.85L84.09 0.6Q83.49-0.05 82.79-2.85 82.09-5.65 81.49-9.15L81.49-9.15Q81.09-12 80.34-14.8L80.34-14.8Q79.74-17.3 79.19-17.3L79.19-17.3 79.04-17.3Q77.94-17.3 77.94-16.6L77.94-16.6Q77.94-13 78.34-5.65L78.34-5.65Q78.54-1.15 78.79-0.4L78.79-0.4 78.39 0.45 77.69 0.45 77.29 0.05Q76.49-23.05 76.49-31.45L76.49-31.45Q76.49-32 76.56-32.35 76.64-32.7 76.89-33L76.89-33Q77.09-33.35 77.59-33.35L77.59-33.35Q80.14-33.35 81.69-32.1 83.24-30.85 83.24-28.5L83.24-28.5 83.24-24.85Q83.24-23.9 82.62-22.3 81.99-20.7 81.24-19.35L81.24-19.35 80.59-18.1Q81.14-15.55 82.77-8.93 84.39-2.3 84.54-1.9L84.54-1.9Q84.59-1.85 84.67-1.65 84.74-1.45 84.99-1.05L84.99-1.05Q85.34-0.35 85.34 0.15L85.34 0.15Q85.34 0.85 84.79 0.85L84.79 0.85ZM78.19-18.55Q79.14-18.55 79.89-19.5 80.64-20.45 81.09-21.95L81.09-21.95Q81.89-25 81.89-26.8L81.89-26.8Q81.89-27.95 81.77-28.7 81.64-29.45 81.34-30.3L81.34-30.3Q80.74-32.05 78.49-32.05L78.49-32.05Q78.24-32.05 78.09-31.63 77.94-31.2 77.94-30.75L77.94-30.75Q77.94-27.4 78.04-24.7L78.04-24.7Q78.09-22 78.09-18.65L78.09-18.65 78.19-18.55ZM91.84 0.65Q91.14 0.65 90.99-0.5L90.99-0.5Q91.09-0.8 91.09-2.15L91.09-2.15Q91.09-6.75 91.24-15.8L91.24-15.8Q91.39-24.8 91.39-28.8L91.39-28.8 91.49-30.6 91.64-32.1Q91.64-32.45 91.99-32.45L91.99-32.45Q92.24-32.45 92.69-32.3L92.69-32.3 92.84-32.25Q92.84-31.15 92.79-30.25L92.79-30.25 92.79-28.3 92.79-22.85Q92.84-20.45 92.84-17.4L92.84-17.4Q92.79-17.15 92.79-16.3L92.79-16.3 92.74-15.25Q92.69-14.25 92.69-13.2L92.69-13.2Q92.69-12.05 92.74-11.1L92.74-11.1 92.79-8.95 92.64-8.55 92.69-8.6Q92.69-8.45 92.64-8.4L92.64-8.4 92.64-8.2Q92.64-7.8 92.79-7.5L92.79-7.5 92.64-2.7 92.64-2.4Q92.64-1.55 92.69-1.4L92.69-1.4Q92.69-1.15 92.94-1.15L92.94-1.15 95.54-1.05Q96.69-1.05 97.11-1.03 97.54-1 97.64-1L97.64-1 97.79-1Q98.04-1 98.29-0.73 98.54-0.45 98.54-0.15L98.54-0.15Q98.54 0.45 97.74 0.5L97.74 0.5Q96.89 0.45 93.59 0.45L93.59 0.45 93.69 0.5Q93.19 0.5 92.74 0.55L92.74 0.55Q92.34 0.65 91.84 0.65L91.84 0.65ZM104.34 0.25Q103.94 0.25 103.94-1.1L103.94-1.1Q103.74-4.55 103.74-9.8L103.74-9.8Q103.74-13.1 103.79-15.7L103.79-15.7 103.84-21.6Q103.84-25.4 103.64-31L103.64-31Q103.19-31.4 103.19-32L103.19-32Q103.19-32.35 103.61-32.73 104.04-33.1 104.39-33.1L104.39-33.1Q104.79-33.1 105.14-32.7L105.14-32.7 105.69-32.25Q105.99-32.1 106.84-31.95L106.84-31.95Q107.69-31.8 108.04-31.65L108.04-31.65Q108.79-31.25 110.04-30.1L110.04-30.1Q111.24-28.9 111.69-28.6L111.69-28.6 111.64-28.5Q111.69-28.2 112.39-27.2L112.39-27.2Q112.94-26.45 113.29-25.8L113.29-25.8Q114.09-23.5 114.09-19.85L114.09-19.85Q114.09-19.2 114.04-18.7L114.04-18.7 114.04-17.5 114.04-17.1 113.99-16.6Q113.99-15.65 114.29-15.1L114.29-15.1Q113.99-13.5 113.54-9.05L113.54-9.05Q113.39-7.75 113.04-6.3 112.69-4.85 112.19-3.9L112.19-3.9Q110.89-1.45 107.84 0.25L107.84 0.25 104.34 0.25ZM106.09-1.2L107.64-1.2Q107.99-1.6 108.29-1.85L108.29-1.85Q108.29-1.85 108.64-2.1L108.64-2.1 109.04-2.45Q112.54-5.6 112.54-14.45L112.54-14.45 112.54-15.4Q112.49-15.8 112.49-16.25L112.49-16.25 112.29-21.3Q112.14-24.2 110.54-27.3L110.54-27.3Q109.79-28.85 108.51-29.83 107.24-30.8 105.84-30.8L105.84-30.8Q105.24-30.8 105.24-21.55L105.24-21.55Q105.24-10.85 105.84-2.9L105.84-2.9 105.79-1.95 105.99-1.85 106.09-1.2Z" opacity="1" transform="matrix(1,0,0,1,0,0)" fill="#ea3c12" class="undefined-text-0" data-fill-palette-color="primary" id="text-0"></path></svg></g></svg></g><g transform="matrix(1,0,0,1,0,105.04985908217178)"><svg viewBox="0 0 244.43135999999998 24.654927745003864" height="24.654927745003864" width="244.43135999999998"><g transform="matrix(1,0,0,1,0,0)"><svg width="244.43135999999998" viewBox="0.34375 -40.45000076293945 471.37469482421875 47.54999923706055" height="24.654927745003864" data-palette-color="#ea3c12"><path d="M28.15-1.2L17.15-34.8 6.2-1.2 6.2-1.25Q5.9-0.5 5.38-0.03 4.85 0.45 4.1 0.45L4.1 0.45Q3.7 0.45 3.33 0.38 2.95 0.3 2.55 0.2L2.55 0.2 2.6 0.2Q-0.25-0.7 0.5-3L0.5-3 11.9-37.65Q12.15-38.45 12.78-39 13.4-39.55 14.25-39.65L14.25-39.65Q15.1-39.8 15.9-39.88 16.7-39.95 17.15-39.95L17.15-39.95Q17.6-39.95 18.4-39.88 19.2-39.8 20.05-39.7L20.05-39.7Q20.75-39.6 21.43-38.95 22.1-38.3 22.45-37.65L22.45-37.65Q25.25-29.05 28.13-20.33 31-11.6 33.8-3L33.8-3Q34.5-0.7 31.7 0.2L31.7 0.2Q31.3 0.3 30.98 0.38 30.65 0.45 30.25 0.45L30.25 0.45Q29.55 0.45 28.98-0.03 28.4-0.5 28.15-1.25L28.15-1.25 28.15-1.2ZM20.9-12L20.9-12Q20.9-10.4 19.78-9.28 18.65-8.15 17.05-8.15L17.05-8.15Q15.45-8.15 14.35-9.28 13.25-10.4 13.25-12L13.25-12Q13.25-13.6 14.35-14.73 15.45-15.85 17.05-15.85L17.05-15.85Q18.65-15.85 19.78-14.73 20.9-13.6 20.9-12ZM56.4-1.75L56.4-25.4 46.75-25.4Q44.7-25.4 44.05-24.2L44.05-24.2Q43.35-23.15 43.35-21.75L43.35-21.75 43.35-7.35Q43.35-6.05 44.15-5.38 44.95-4.7 46.8-4.7L46.8-4.7 51.95-4.7Q53.75-4.7 53.75-2.35L53.75-2.35Q53.75-1.35 53.32-0.68 52.9 0 51.95 0L51.95 0 45.9 0Q42.75 0 40.3-1.6L40.3-1.6Q37.85-3.1 37.85-7.3L37.85-7.3 37.85-22.2Q37.85-24.25 38.5-25.75 39.15-27.25 40.55-28.2L40.55-28.2Q43.2-30.1 45.85-30.1L45.85-30.1 56.4-30.1 56.4-37.6Q56.4-40 59.15-40L59.15-40Q61.9-40 61.9-37.6L61.9-37.6 61.9-2.1Q61.9 0.3 59.15 0.3L59.15 0.3Q58.1 0.3 57.25-0.08 56.4-0.45 56.4-1.75L56.4-1.75ZM79.25 0.3L78.7 0.3Q78.6 0.3 78.45 0.28 78.3 0.25 78.15 0.25L78.15 0.25Q77.9 0.25 77.45 0.25L77.45 0.25Q77 0.25 76.6 0.2L76.6 0.2Q75.75 0.15 75.15-0.28 74.55-0.7 74.3-1.3L74.3-1.3 65.9-27.1Q65.65-28.15 66.17-28.98 66.7-29.8 67.85-30.2L67.85-30.2Q68.2-30.3 68.55-30.35 68.9-30.4 69.15-30.4L69.15-30.4Q70.7-30.4 71.3-28.7L71.3-28.7 74.95-17.35 78.8-5.45 86.3-28.7Q86.85-30.45 88.3-30.45L88.3-30.45Q88.85-30.45 89.7-30.2L89.7-30.2Q91-29.85 91.5-29.03 92-28.2 91.65-27.1L91.65-27.1 83.3-1.3Q82.85 0.1 80.95 0.2L80.95 0.2Q80.85 0.2 80.72 0.23 80.6 0.25 80.5 0.25L80.5 0.25Q80.1 0.3 79.8 0.3L79.8 0.3Q79.5 0.3 79.25 0.3L79.25 0.3ZM101.59-22.15L101.59-8Q101.59-6.8 102.37-5.75 103.14-4.7 104.99-4.7L104.99-4.7 111.24-4.7Q113.09-4.7 113.87-5.63 114.64-6.55 114.64-7.75L114.64-7.75 114.64-8.3Q114.64-10.65 117.39-10.65L117.39-10.65Q120.14-10.65 120.14-8.3L120.14-8.3 120.14-7.7Q120.14-5.6 119.47-4.25 118.79-2.9 117.44-1.9L117.44-1.9Q114.79 0 112.14 0L112.14 0 103.74 0Q101.09 0 98.59-1.9L98.59-1.9Q97.39-2.9 96.74-4.42 96.09-5.95 96.09-7.95L96.09-7.95 96.09-22.2Q96.09-26.25 98.59-28.2L98.59-28.2Q99.84-29.1 101.17-29.63 102.49-30.15 103.74-30.15L103.74-30.15 112.14-30.15Q113.34-30.15 114.79-29.68 116.24-29.2 117.49-28.4L117.49-28.4Q118.69-27.55 119.42-26.05 120.14-24.55 120.14-22.5L120.14-22.5 120.14-15.75Q120.14-14.6 119.47-13.7 118.79-12.8 116.99-12.8L116.99-12.8 106.19-12.8Q104.39-12.8 104.29-15.15L104.29-15.15Q104.29-17.5 106.19-17.5L106.19-17.5 114.69-17.5 114.64-22.15Q114.64-23.4 113.87-24.43 113.09-25.45 111.24-25.45L111.24-25.45 104.99-25.45Q103.14-25.45 102.37-24.43 101.59-23.4 101.59-22.15L101.59-22.15ZM131.89-22.75L131.89-2.1Q131.89 0.3 129.14 0.3L129.14 0.3Q126.29 0.3 126.29-2.1L126.29-2.1 126.29-22.8Q126.29-26.9 128.74-28.5L128.74-28.5Q131.19-30.1 134.39-30.1L134.39-30.1 140.09-30.1Q141.94-30.1 141.94-27.75L141.94-27.75Q142.04-25.4 140.09-25.4L140.09-25.4 134.79-25.4Q132.99-25.4 132.44-24.7 131.89-24 131.89-22.75L131.89-22.75ZM156.89-25.4L152.74-25.4 152.74-7.2Q152.74-5.9 153.29-5.2 153.84-4.5 155.64-4.5L155.64-4.5 156.94-4.5Q158.89-4.5 158.79-2.2L158.79-2.2Q158.79 0.15 156.94 0.15L156.94 0.15 155.29 0.15Q153.69 0.15 152.29-0.28 150.89-0.7 149.59-1.5L149.59-1.5 149.59-1.45Q147.14-3.05 147.14-7.15L147.14-7.15 147.14-25.4 145.19-25.4Q143.39-25.4 143.29-27.75L143.29-27.75Q143.29-30.1 145.19-30.1L145.19-30.1 147.14-30.1 147.14-35.45Q147.14-37.85 149.99-37.85L149.99-37.85Q152.74-37.85 152.74-35.45L152.74-35.45 152.74-30.1 156.89-30.1Q158.84-30.1 158.74-27.75L158.74-27.75Q158.74-25.4 156.89-25.4L156.89-25.4ZM168.79-27.9L168.79-2.1Q168.79 0.3 166.04 0.3L166.04 0.3Q163.24 0.3 163.24-2.1L163.24-2.1 163.24-27.9Q163.24-30.3 166.04-30.3L166.04-30.3Q168.79-30.3 168.79-27.9L168.79-27.9ZM169.84-36.6L169.84-36.6Q169.84-35 168.74-33.9 167.64-32.8 166.04-32.8L166.04-32.8Q164.44-32.8 163.31-33.9 162.19-35 162.19-36.6L162.19-36.6Q162.19-38.25 163.31-39.35 164.44-40.45 166.04-40.45L166.04-40.45Q167.64-40.45 168.74-39.35 169.84-38.25 169.84-36.6ZM199.78-10.3L199.78-7.95Q199.78-3.85 197.08-1.9L197.08-1.9Q194.43 0 191.78 0L191.78 0 183.38 0Q180.73 0 178.23-1.9L178.23-1.9Q177.03-2.9 176.38-4.42 175.73-5.95 175.73-7.95L175.73-7.95 175.73-22.2Q175.73-26.25 178.23-28.2L178.23-28.2Q179.48-29.1 180.81-29.63 182.13-30.15 183.38-30.15L183.38-30.15 191.78-30.15Q192.98-30.15 194.43-29.68 195.88-29.2 197.13-28.4L197.13-28.4Q198.33-27.55 199.06-26.05 199.78-24.55 199.78-22.5L199.78-22.5 199.78-20Q199.78-17.6 197.03-17.6L197.03-17.6Q194.28-17.6 194.28-20L194.28-20 194.28-22.15Q194.28-23.4 193.51-24.43 192.73-25.45 190.88-25.45L190.88-25.45 184.63-25.45Q182.78-25.45 182.01-24.43 181.23-23.4 181.23-22.15L181.23-22.15 181.23-8Q181.23-6.8 182.01-5.75 182.78-4.7 184.63-4.7L184.63-4.7 190.88-4.7Q192.73-4.7 193.51-5.75 194.28-6.8 194.28-8L194.28-8 194.28-10.3Q194.28-12.65 197.03-12.65L197.03-12.65Q199.78-12.65 199.78-10.3L199.78-10.3ZM211.68-27.9L211.68-2.1Q211.68 0.3 208.93 0.3L208.93 0.3Q206.13 0.3 206.13-2.1L206.13-2.1 206.13-27.9Q206.13-30.3 208.93-30.3L208.93-30.3Q211.68-30.3 211.68-27.9L211.68-27.9ZM212.73-36.6L212.73-36.6Q212.73-35 211.63-33.9 210.53-32.8 208.93-32.8L208.93-32.8Q207.33-32.8 206.21-33.9 205.08-35 205.08-36.6L205.08-36.6Q205.08-38.25 206.21-39.35 207.33-40.45 208.93-40.45L208.93-40.45Q210.53-40.45 211.63-39.35 212.73-38.25 212.73-36.6ZM224.13-21.75L224.13-2.1Q224.13 0.3 221.38 0.3L221.38 0.3Q218.63 0.3 218.63-2.1L218.63-2.1 218.63-22.2Q218.63-24.25 219.28-25.75 219.93-27.25 221.33-28.2L221.33-28.2Q223.98-30.1 226.63-30.1L226.63-30.1 234.68-30.1Q237.23-30.1 239.98-28.2L239.98-28.2Q242.68-26.3 242.68-22.2L242.68-22.2 242.68-2.1Q242.68 0.3 239.93 0.3L239.93 0.3Q237.18 0.3 237.18-2.1L237.18-2.1 237.18-21.75Q237.18-23.05 236.38-24.25L236.38-24.25 236.43-24.2Q235.78-25.4 233.78-25.4L233.78-25.4 227.53-25.4Q225.48-25.4 224.83-24.2L224.83-24.2Q224.13-23.15 224.13-21.75L224.13-21.75ZM263.23-3.5L257.18-3.5Q255.88-3.5 254.5-3.95 253.13-4.4 251.83-5.25L251.83-5.25Q249.13-7 249.13-11.15L249.13-11.15 249.13-22.45Q249.13-24.55 249.85-26.05 250.58-27.55 251.83-28.4L251.83-28.4Q253.13-29.2 254.48-29.65 255.83-30.1 257.13-30.1L257.13-30.1 265.53-30.1Q266.78-30.1 268.13-29.55 269.48-29 270.63-28.15L270.63-28.15Q271.78-27.2 272.48-25.65 273.18-24.1 273.18-22.15L273.18-22.15 273.18-0.95Q273.18 1.15 272.5 2.63 271.83 4.1 270.63 5.1L270.63 5.1Q269.48 6.05 268.15 6.58 266.83 7.1 265.53 7.1L265.53 7.1 257.13 7.1Q254.48 7.1 251.78 5.55L251.78 5.55Q250.38 4.75 249.75 3.5 249.13 2.25 249.13 0.6L249.13 0.6 249.13 0Q249.13-1 249.78-1.6 250.43-2.2 251.83-2.2L251.83-2.2Q254.63-1.9 254.63 0L254.63 0 254.63 0.55Q254.63 1.1 255.4 1.75 256.18 2.4 258.03 2.4L258.03 2.4 264.28 2.4Q266.13 2.4 266.9 1.35 267.68 0.3 267.68-1L267.68-1 267.68-22.1Q267.68-23.35 266.9-24.38 266.13-25.4 264.28-25.4L264.28-25.4 258.03-25.4Q256.18-25.4 255.4-24.38 254.63-23.35 254.63-22.1L254.63-22.1 254.63-11.55Q254.63-10.3 255.4-9.22 256.18-8.15 258.03-8.15L258.03-8.15 263.23-8.15Q265.03-8.15 265.03-5.85L265.03-5.85Q265.03-4.8 264.6-4.15 264.18-3.5 263.23-3.5L263.23-3.5ZM319.47-1.2L308.47-34.8 297.52-1.2 297.52-1.25Q297.22-0.5 296.7-0.03 296.17 0.45 295.42 0.45L295.42 0.45Q295.02 0.45 294.65 0.38 294.27 0.3 293.87 0.2L293.87 0.2 293.92 0.2Q291.07-0.7 291.82-3L291.82-3 303.22-37.65Q303.47-38.45 304.1-39 304.72-39.55 305.57-39.65L305.57-39.65Q306.42-39.8 307.22-39.88 308.02-39.95 308.47-39.95L308.47-39.95Q308.92-39.95 309.72-39.88 310.52-39.8 311.37-39.7L311.37-39.7Q312.07-39.6 312.75-38.95 313.42-38.3 313.77-37.65L313.77-37.65Q316.57-29.05 319.45-20.33 322.32-11.6 325.12-3L325.12-3Q325.82-0.7 323.02 0.2L323.02 0.2Q322.62 0.3 322.3 0.38 321.97 0.45 321.57 0.45L321.57 0.45Q320.87 0.45 320.3-0.03 319.72-0.5 319.47-1.25L319.47-1.25 319.47-1.2ZM312.22-12L312.22-12Q312.22-10.4 311.1-9.28 309.97-8.15 308.37-8.15L308.37-8.15Q306.77-8.15 305.67-9.28 304.57-10.4 304.57-12L304.57-12Q304.57-13.6 305.67-14.73 306.77-15.85 308.37-15.85L308.37-15.85Q309.97-15.85 311.1-14.73 312.22-13.6 312.22-12ZM343.27-3.5L337.22-3.5Q335.92-3.5 334.54-3.95 333.17-4.4 331.87-5.25L331.87-5.25Q329.17-7 329.17-11.15L329.17-11.15 329.17-22.45Q329.17-24.55 329.89-26.05 330.62-27.55 331.87-28.4L331.87-28.4Q333.17-29.2 334.52-29.65 335.87-30.1 337.17-30.1L337.17-30.1 345.57-30.1Q346.82-30.1 348.17-29.55 349.52-29 350.67-28.15L350.67-28.15Q351.82-27.2 352.52-25.65 353.22-24.1 353.22-22.15L353.22-22.15 353.22-0.95Q353.22 1.15 352.54 2.63 351.87 4.1 350.67 5.1L350.67 5.1Q349.52 6.05 348.19 6.58 346.87 7.1 345.57 7.1L345.57 7.1 337.17 7.1Q334.52 7.1 331.82 5.55L331.82 5.55Q330.42 4.75 329.79 3.5 329.17 2.25 329.17 0.6L329.17 0.6 329.17 0Q329.17-1 329.82-1.6 330.47-2.2 331.87-2.2L331.87-2.2Q334.67-1.9 334.67 0L334.67 0 334.67 0.55Q334.67 1.1 335.44 1.75 336.22 2.4 338.07 2.4L338.07 2.4 344.32 2.4Q346.17 2.4 346.94 1.35 347.72 0.3 347.72-1L347.72-1 347.72-22.1Q347.72-23.35 346.94-24.38 346.17-25.4 344.32-25.4L344.32-25.4 338.07-25.4Q336.22-25.4 335.44-24.38 334.67-23.35 334.67-22.1L334.67-22.1 334.67-11.55Q334.67-10.3 335.44-9.22 336.22-8.15 338.07-8.15L338.07-8.15 343.27-8.15Q345.07-8.15 345.07-5.85L345.07-5.85Q345.07-4.8 344.64-4.15 344.22-3.5 343.27-3.5L343.27-3.5ZM365.42-22.15L365.42-8Q365.42-6.8 366.19-5.75 366.97-4.7 368.82-4.7L368.82-4.7 375.07-4.7Q376.92-4.7 377.69-5.63 378.47-6.55 378.47-7.75L378.47-7.75 378.47-8.3Q378.47-10.65 381.22-10.65L381.22-10.65Q383.97-10.65 383.97-8.3L383.97-8.3 383.97-7.7Q383.97-5.6 383.29-4.25 382.62-2.9 381.27-1.9L381.27-1.9Q378.62 0 375.97 0L375.97 0 367.57 0Q364.92 0 362.42-1.9L362.42-1.9Q361.22-2.9 360.57-4.42 359.92-5.95 359.92-7.95L359.92-7.95 359.92-22.2Q359.92-26.25 362.42-28.2L362.42-28.2Q363.67-29.1 364.99-29.63 366.32-30.15 367.57-30.15L367.57-30.15 375.97-30.15Q377.17-30.15 378.62-29.68 380.07-29.2 381.32-28.4L381.32-28.4Q382.52-27.55 383.24-26.05 383.97-24.55 383.97-22.5L383.97-22.5 383.97-15.75Q383.97-14.6 383.29-13.7 382.62-12.8 380.82-12.8L380.82-12.8 370.02-12.8Q368.22-12.8 368.12-15.15L368.12-15.15Q368.12-17.5 370.02-17.5L370.02-17.5 378.52-17.5 378.47-22.15Q378.47-23.4 377.69-24.43 376.92-25.45 375.07-25.45L375.07-25.45 368.82-25.45Q366.97-25.45 366.19-24.43 365.42-23.4 365.42-22.15L365.42-22.15ZM395.81-21.75L395.81-2.1Q395.81 0.3 393.06 0.3L393.06 0.3Q390.31 0.3 390.31-2.1L390.31-2.1 390.31-22.2Q390.31-24.25 390.96-25.75 391.61-27.25 393.01-28.2L393.01-28.2Q395.66-30.1 398.31-30.1L398.31-30.1 406.36-30.1Q408.91-30.1 411.66-28.2L411.66-28.2Q414.36-26.3 414.36-22.2L414.36-22.2 414.36-2.1Q414.36 0.3 411.61 0.3L411.61 0.3Q408.86 0.3 408.86-2.1L408.86-2.1 408.86-21.75Q408.86-23.05 408.06-24.25L408.06-24.25 408.11-24.2Q407.46-25.4 405.46-25.4L405.46-25.4 399.21-25.4Q397.16-25.4 396.51-24.2L396.51-24.2Q395.81-23.15 395.81-21.75L395.81-21.75ZM444.86-10.3L444.86-7.95Q444.86-3.85 442.16-1.9L442.16-1.9Q439.51 0 436.86 0L436.86 0 428.46 0Q425.81 0 423.31-1.9L423.31-1.9Q422.11-2.9 421.46-4.42 420.81-5.95 420.81-7.95L420.81-7.95 420.81-22.2Q420.81-26.25 423.31-28.2L423.31-28.2Q424.56-29.1 425.89-29.63 427.21-30.15 428.46-30.15L428.46-30.15 436.86-30.15Q438.06-30.15 439.51-29.68 440.96-29.2 442.21-28.4L442.21-28.4Q443.41-27.55 444.14-26.05 444.86-24.55 444.86-22.5L444.86-22.5 444.86-20Q444.86-17.6 442.11-17.6L442.11-17.6Q439.36-17.6 439.36-20L439.36-20 439.36-22.15Q439.36-23.4 438.59-24.43 437.81-25.45 435.96-25.45L435.96-25.45 429.71-25.45Q427.86-25.45 427.09-24.43 426.31-23.4 426.31-22.15L426.31-22.15 426.31-8Q426.31-6.8 427.09-5.75 427.86-4.7 429.71-4.7L429.71-4.7 435.96-4.7Q437.81-4.7 438.59-5.75 439.36-6.8 439.36-8L439.36-8 439.36-10.3Q439.36-12.65 442.11-12.65L442.11-12.65Q444.86-12.65 444.86-10.3L444.86-10.3ZM455.31 7L452.71 7Q450.96 7 450.86 4.65L450.86 4.65Q450.86 2.3 452.71 2.3L452.71 2.3 454.91 2.3Q456.66 2.3 457.21 1.25L457.21 1.25 457.91-0.6 458.16-1.4 448.41-26.95 448.41-26.9Q448.01-28.1 448.58-28.95 449.16-29.8 450.36-30.2L450.36-30.2Q451.26-30.45 451.81-30.45L451.81-30.45Q453.26-30.45 453.61-28.75L453.61-28.75 457.56-18.9 460.91-10.7 466.26-28.65Q466.71-30.45 468.36-30.45L468.36-30.45Q468.76-30.45 469.66-30.2L469.66-30.2Q470.86-29.85 471.38-29.05 471.91-28.25 471.61-27.15L471.61-27.15Q469.36-19.5 467.03-11.75 464.71-4 462.46 3.6L462.46 3.6Q462.21 4.15 461.68 4.73 461.16 5.3 460.31 5.83 459.46 6.35 458.21 6.68 456.96 7 455.31 7L455.31 7Z" opacity="1" transform="matrix(1,0,0,1,0,0)" fill="#ea3c12" class="undefined-text-1" data-fill-palette-color="secondary" id="text-1"></path></svg></g></svg></g></svg></g></svg></g></svg></g></svg></g></svg></g><g><path d="M0 123.6c0-68.262 55.338-123.6 123.6-123.6 40.111 0 75.76 19.107 98.341 48.716h-4.865c-21.95-27.364-55.667-44.884-93.476-44.884-66.146 0-119.768 53.622-119.768 119.768 0 66.146 53.622 119.768 119.768 119.768 37.809 0 71.526-17.52 93.476-44.884l4.865 0c-22.581 29.609-58.23 48.716-98.341 48.716-68.262 0-123.6-55.338-123.6-123.6z" fill="#ea3c12" stroke="transparent" data-fill-palette-color="tertiary"></path></g></svg></g><defs></defs></svg><rect width="395.52" height="247.2" fill="none" stroke="none" visibility="hidden"></rect></g></svg></g></svg>